<svg xmlns="http://www.w3.org/2000/svg" viewBox="0 0 32 32" role="img" aria-hidden="true">
  <rect width="32" height="32" rx="7" fill="#345846"/>
  <path d="M6 12 Q10 9 16 10 L20 12 Q22 14 23 17 L23 20 Q22 23 19 24 L14 25 Q10 26 7 24 L5 22 Q4 19 4 16 Q4 13 6 12 Z" fill="#3ecf8e" opacity="0.9"/>
  <path d="M16 10 L20 12 Q24 13 26 16 L26 19 Q25 22 22 23 L16 10 Z" fill="#f5a623" opacity="0.85"/>
  <path d="M8 16 Q14 14 22 16" fill="none" stroke="#fff" stroke-width="1.5" stroke-linecap="round"/>
  <g transform="translate(7 17) scale(0.22)">
    <path d="M0 48 L88 48 L108 32 L168 32 L188 48 L228 48 L228 88 L0 88 Z" fill="#e8f4ff" fill-opacity="0.35" stroke="#fff" stroke-width="6"/>
  </g>
</svg>
